<?xml version="1.0" encoding="UTF-8"?>
<!-- Generator: visioncortex VTracer 0.6.3 -->
<svg version="1.1" xmlns="http://www.w3.org/2000/svg" width="64" height="64">
<path d="M0 0 C1.21 0.03 1.21 0.03 2.44 0.06 C2.11 0.72 1.78 1.38 1.44 2.06 C3.73 2.12 6.02 2.16 8.31 2.19 C9.59 2.21 10.86 2.23 12.18 2.26 C15.52 2.42 15.52 2.42 17.44 0.06 C20.06 -0.06 20.06 -0.06 22.44 0.06 C22.11 0.72 21.78 1.38 21.44 2.06 C23.54 2.31 25.64 2.54 27.75 2.75 C28.92 2.88 30.09 3.01 31.3 3.14 C34.42 3.39 34.42 3.39 36.19 1.59 C36.81 0.84 36.81 0.84 37.44 0.06 C40.12 -0.12 40.12 -0.12 42.44 0.06 C42.04 0.52 41.64 0.98 41.23 1.45 C40.7 2.07 40.17 2.68 39.62 3.31 C39.1 3.92 38.58 4.52 38.04 5.14 C36.44 7.06 34.94 9.06 33.44 11.06 C36.74 11.06 40.04 11.06 43.44 11.06 C44.64 19.54 44.73 27.93 44.79 36.48 C44.8 38.33 44.83 40.18 44.87 42.03 C44.92 44.73 44.95 47.41 44.96 50.11 C44.98 50.93 45.01 51.75 45.03 52.6 C45.01 56.92 44.82 58.57 42.08 62.1 C39.18 64.25 37.96 64.57 34.44 64.06 C34.93 63.07 34.93 63.07 35.44 62.06 C33.15 62.01 30.85 61.97 28.56 61.94 C26.65 61.9 26.65 61.9 24.7 61.87 C21.35 61.71 21.35 61.71 19.44 64.06 C16.81 64.19 16.81 64.19 14.44 64.06 C14.93 63.07 14.93 63.07 15.44 62.06 C13.15 62.01 10.85 61.97 8.56 61.94 C6.65 61.9 6.65 61.9 4.7 61.87 C1.35 61.71 1.35 61.71 -0.56 64.06 C-3.19 64.19 -3.19 64.19 -5.56 64.06 C-5.23 63.4 -4.9 62.74 -4.56 62.06 C-9.51 62.06 -14.46 62.06 -19.56 62.06 C-19.59 55.76 -19.61 49.46 -19.62 43.17 C-19.62 41.02 -19.63 38.88 -19.64 36.74 C-19.65 33.66 -19.66 30.58 -19.66 27.49 C-19.67 26.54 -19.67 25.59 -19.68 24.6 C-19.68 19.97 -19.52 15.62 -18.56 11.06 C-17.45 10.77 -16.34 10.48 -15.19 10.19 C-11.56 9.37 -11.56 9.37 -9.56 7.06 C-9.41 6.07 -9.41 6.07 -9.25 5.06 C-9.02 4.4 -8.8 3.74 -8.56 3.06 C-6.06 1.87 -6.06 1.87 -3.56 1.06 C-2.56 0.06 -2.56 0.06 0 0 Z M-2.56 6.06 C-2.56 7.71 -2.56 9.36 -2.56 11.06 C-0.98 11.2 0.6 11.29 2.19 11.38 C3.51 11.46 3.51 11.46 4.86 11.55 C8.21 11.21 8.21 11.21 11.44 6.06 C6.82 6.06 2.2 6.06 -2.56 6.06 Z M12.44 11.06 C17.39 11.06 22.34 11.06 27.44 11.06 C27.44 9.41 27.44 7.76 27.44 6.06 C25.69 5.93 23.94 5.83 22.19 5.75 C21.21 5.69 20.24 5.63 19.23 5.57 C15.68 5.88 15.68 5.88 12.44 11.06 Z " fill="#4B75BA" transform="translate(19.5625,-0.0625)"/>
<path d="M0 0 C0.99 0.33 1.98 0.66 3 1 C3.02 1.68 3.05 2.35 3.07 3.05 C3.2 6.12 3.38 9.18 3.56 12.25 C3.6 13.31 3.64 14.38 3.67 15.47 C3.85 20.99 3.85 20.99 6.49 25.57 C8.54 26.84 8.54 26.84 12 28 C12.81 28.33 13.61 28.67 14.44 29.01 C18.61 30.34 22.64 31.44 27 32 C27.33 33.65 27.66 35.3 28 37 C29.98 37 31.96 37 34 37 C34.33 35.35 34.66 33.7 35 32 C36.5 31.64 36.5 31.64 38.04 31.27 C39.38 30.93 40.72 30.59 42.06 30.25 C42.72 30.09 43.38 29.94 44.05 29.77 C46.07 29.26 48.03 28.66 50 28 C50.66 27.8 51.32 27.59 52.01 27.38 C54.17 26.48 55.44 25.76 57 24 C58.15 20.11 58.3 16.29 58.44 12.25 C58.5 11.17 58.57 10.09 58.63 8.98 C58.78 6.32 58.91 3.66 59 1 C60.32 0.67 61.64 0.34 63 0 C63.13 6.32 63.21 12.63 63.27 18.95 C63.3 21.1 63.33 23.25 63.38 25.4 C63.44 28.49 63.47 31.58 63.49 34.67 C63.51 35.63 63.54 36.58 63.57 37.57 C63.57 42.22 63.52 44.31 60.65 48.13 C57.75 50.18 56.46 50.49 53 50 C53.49 49.01 53.49 49.01 54 48 C51.71 47.95 49.42 47.91 47.12 47.88 C45.21 47.84 45.21 47.84 43.26 47.8 C39.91 47.64 39.91 47.64 38 50 C35.38 50.12 35.38 50.12 33 50 C33.49 49.01 33.49 49.01 34 48 C31.71 47.95 29.42 47.91 27.12 47.88 C25.21 47.84 25.21 47.84 23.26 47.8 C19.91 47.64 19.91 47.64 18 50 C15.38 50.12 15.38 50.12 13 50 C13.33 49.34 13.66 48.68 14 48 C9.05 48 4.1 48 -1 48 C-1.02 41.65 -1.04 35.29 -1.05 28.94 C-1.06 26.78 -1.07 24.61 -1.08 22.45 C-1.09 19.35 -1.09 16.24 -1.1 13.14 C-1.1 12.17 -1.11 11.2 -1.11 10.2 C-1.11 9.3 -1.11 8.4 -1.11 7.47 C-1.12 6.68 -1.12 5.89 -1.12 5.07 C-1 3 -1 3 0 0 Z " fill="#243D65" transform="translate(1,14)"/>
<path d="M0 0 C0.06 3.12 0.09 6.25 0.12 9.38 C0.14 10.26 0.16 11.15 0.18 12.07 C0.19 13.35 0.19 13.35 0.2 14.65 C0.21 15.83 0.21 15.83 0.23 17.03 C0 19 0 19 -2 21 C-3.8 21.26 -3.8 21.26 -6 21.27 C-7.24 21.29 -7.24 21.29 -8.5 21.3 C-9.39 21.3 -10.29 21.3 -11.21 21.3 C-12.12 21.31 -13.04 21.31 -13.99 21.31 C-15.93 21.32 -17.88 21.32 -19.82 21.32 C-22.79 21.31 -25.76 21.34 -28.73 21.36 C-30.62 21.36 -32.51 21.36 -34.39 21.36 C-35.72 21.38 -35.72 21.38 -37.08 21.39 C-41.86 21.36 -45.15 21.16 -49 18 C-51.43 14.36 -51.16 12.29 -51 8 C-46.59 6.71 -43.61 7.36 -39.25 8.69 C-38.1 9.02 -36.95 9.36 -35.77 9.7 C-33 11 -33 11 -32.11 13.14 C-32.06 14.06 -32.06 14.06 -32 15 C-29.69 15 -27.38 15 -25 15 C-24.82 13.89 -24.64 12.78 -24.45 11.64 C-23 8 -23 8 -19.77 6.58 C-18.46 6.3 -17.14 6.04 -15.81 5.81 C-11.14 4.81 -4.08 0 0 0 Z " fill="#335284" transform="translate(59,38)"/>
<path d="M0 0 C0.66 0.33 1.32 0.66 2 1 C1.81 4.75 1.57 8.5 1.31 12.25 C1.26 13.31 1.21 14.38 1.15 15.47 C0.58 23.3 0.58 23.3 -2.18 26.59 C-5.25 28.13 -8.2 29.28 -11.5 30.25 C-12.6 30.59 -13.71 30.92 -14.84 31.27 C-17.71 31.93 -20.08 32.15 -23 32 C-23.33 30.02 -23.66 28.04 -24 26 C-23.16 25.64 -22.32 25.29 -21.45 24.92 C-17.23 22.57 -14.2 19.71 -10.81 16.31 C-10.2 15.73 -9.58 15.14 -8.95 14.53 C-4.7 10.31 -2.8 6.7 -1 1 C-0.67 0.67 -0.34 0.34 0 0 Z " fill="#466DAE" transform="translate(59,14)"/>
<path d="M0 0 C0.78 0.04 1.57 0.08 2.38 0.12 C2.05 0.79 1.71 1.45 1.38 2.12 C3.67 2.18 5.96 2.22 8.25 2.25 C9.53 2.27 10.8 2.3 12.12 2.32 C15.46 2.48 15.46 2.48 17.38 0.12 C20 0 20 0 22.38 0.12 C22.05 0.79 21.72 1.45 21.38 2.12 C25.34 2.46 29.3 2.79 33.38 3.12 C33.38 3.46 33.38 3.79 33.38 4.12 C31.4 4.12 29.41 4.12 27.38 4.12 C27.38 4.79 27.38 5.45 27.38 6.12 C26.25 6.16 26.25 6.16 25.11 6.2 C19.06 6.33 19.06 6.33 14 9.19 C13.46 9.83 12.93 10.47 12.38 11.12 C9.62 11.38 9.62 11.38 7.38 11.12 C8.36 9.8 9.36 8.48 10.38 7.12 C6.09 6.79 1.8 6.46 -2.62 6.12 C-2.62 5.46 -2.62 4.8 -2.62 4.12 C-4.61 4.12 -6.59 4.12 -8.62 4.12 C-8.01 3.84 -7.39 3.55 -6.75 3.25 C-0.67 0.03 -0.67 0.03 0 0 Z " fill="#3C3F45" transform="translate(19.625,-0.125)"/>
<path d="M0 0 C1.98 0 3.96 0 6 0 C6 2.31 6 4.62 6 7 C10.62 7 15.24 7 20 7 C17 11 17 11 14.82 11.45 C14 11.43 13.18 11.41 12.33 11.39 C11.44 11.38 10.55 11.36 9.63 11.35 C8.7 11.32 7.77 11.28 6.81 11.25 C5.87 11.23 4.93 11.21 3.96 11.2 C1.64 11.15 -0.68 11.08 -3 11 C-3 9.68 -3 8.36 -3 7 C-2.01 7 -1.02 7 0 7 C0 4.69 0 2.38 0 0 Z " fill="#588DDC" transform="translate(11,4)"/>
<path d="M0 0 C3 0.12 3 0.12 4 1.12 C4.1 2.79 4.13 4.46 4.12 6.12 C4.13 7.03 4.13 7.94 4.13 8.88 C4 11.12 4 11.12 3 12.12 C0 12.25 0 12.25 -3 12.12 C-4 11.12 -4 11.12 -4.13 8.88 C-4.13 7.97 -4.13 7.06 -4.12 6.12 C-4.13 5.22 -4.13 4.31 -4.13 3.38 C-3.93 -0.09 -3.54 0.15 0 0 Z " fill="#DC9640" transform="translate(32,39.875)"/>
<path d="M0 0 C1.14 0.09 1.14 0.09 2.31 0.19 C1.91 0.65 1.52 1.11 1.11 1.58 C0.31 2.5 0.31 2.5 -0.5 3.44 C-1.05 4.07 -1.61 4.71 -2.18 5.36 C-3.78 7.22 -3.78 7.22 -5.19 9.62 C-6.69 11.19 -6.69 11.19 -9.88 11.44 C-10.8 11.36 -11.73 11.27 -12.69 11.19 C-12.69 8.88 -12.69 6.57 -12.69 4.19 C-11.59 4.08 -10.5 3.98 -9.38 3.88 C-5.17 3.09 -3.99 0.28 0 0 Z " fill="#8293B0" transform="translate(59.6875,-0.1875)"/>
<path d="M0 0 C0.78 0.04 1.57 0.08 2.38 0.12 C2.05 0.79 1.71 1.45 1.38 2.12 C3.67 2.18 5.96 2.22 8.25 2.25 C9.53 2.27 10.8 2.3 12.12 2.32 C15.46 2.48 15.46 2.48 17.38 0.12 C20 0 20 0 22.38 0.12 C22.05 0.79 21.72 1.45 21.38 2.12 C25.34 2.46 29.3 2.79 33.38 3.12 C33.38 3.46 33.38 3.79 33.38 4.12 C19.52 4.12 5.65 4.12 -8.62 4.12 C-7.3 3.46 -5.98 2.8 -4.62 2.12 C-2.62 0.12 -2.62 0.12 0 0 Z " fill="#515960" transform="translate(19.625,-0.125)"/>
<path d="M0 0 C1.98 0 3.96 0 6 0 C6 2.31 6 4.62 6 7 C4.02 7 2.04 7 0 7 C0 4.69 0 2.38 0 0 Z " fill="#8293B0" transform="translate(11,4)"/>
<path d="M0 0 C-0.93 1.13 -1.87 2.25 -2.81 3.38 C-3.33 4 -3.86 4.63 -4.39 5.27 C-6 7 -6 7 -9 9 C-9.36 5.73 -9.29 4.39 -7.31 1.69 C-4.61 -0.29 -3.27 -0.36 0 0 Z " fill="#444440" transform="translate(62,0)"/>
<path d="M0 0 C0.66 0 1.32 0 2 0 C2.33 2.31 2.66 4.62 3 7 C1.68 7 0.36 7 -1 7 C-0.67 4.69 -0.34 2.38 0 0 Z " fill="#BB914B" transform="translate(31,43)"/>
<path d="M0 0 C1.32 0 2.64 0 4 0 C4 1.65 4 3.3 4 5 C2.68 4.67 1.36 4.34 0 4 C0 2.68 0 1.36 0 0 Z " fill="#A5B4D1" transform="translate(49,4)"/>
<path d="M0 0 C1.32 0 2.64 0 4 0 C4 1.65 4 3.3 4 5 C2.68 4.67 1.36 4.34 0 4 C0 2.68 0 1.36 0 0 Z " fill="#A5B4D0" transform="translate(13,4)"/>
<path d="M0 0 C0.99 0.49 0.99 0.49 2 1 C1.01 1.5 1.01 1.5 0 2 C0 1.34 0 0.68 0 0 Z " fill="#444440" transform="translate(0,0)"/>
</svg>
